<?xml version="1.0" encoding="UTF-8"?>
<svg id="Layer_1" data-name="Layer 1" xmlns="http://www.w3.org/2000/svg" xmlns:xlink="http://www.w3.org/1999/xlink" viewBox="0 0 1056 572.9">
  <defs>
    <style>
      .cls-1 {
        fill: url(#radial-gradient);
      }
    </style>
    <radialGradient id="radial-gradient" cx="526.46" cy="133.23" fx="526.46" fy="133.23" r="339.16" gradientUnits="userSpaceOnUse">
      <stop offset="0" stop-color="#fff"/>
      <stop offset=".04" stop-color="#eee"/>
      <stop offset=".19" stop-color="#b0b0b0"/>
      <stop offset=".35" stop-color="#7a7a7a"/>
      <stop offset=".5" stop-color="#4e4e4e"/>
      <stop offset=".64" stop-color="#2c2c2c"/>
      <stop offset=".77" stop-color="#131313"/>
      <stop offset=".9" stop-color="#050505"/>
      <stop offset="1" stop-color="#000"/>
    </radialGradient>
  </defs>
  <g>
    <path d="m265.54,137.4h-136.01c-4.6,0-8.33-3.73-8.33-8.33s3.73-8.33,8.33-8.33h136.01c4.6,0,8.33,3.73,8.33,8.33s-3.73,8.33-8.33,8.33Z"/>
    <path d="m265.54,83.27h-136.01c-4.6,0-8.33-3.73-8.33-8.33s3.73-8.33,8.33-8.33h136.01c4.6,0,8.33,3.73,8.33,8.33s-3.73,8.33-8.33,8.33Z"/>
    <path d="m265.54,191.52h-136.01c-4.6,0-8.33-3.73-8.33-8.33s3.73-8.33,8.33-8.33h136.01c4.6,0,8.33,3.73,8.33,8.33s-3.73,8.33-8.33,8.33Z"/>
    <path d="m620.83,142.95h-136.01c-4.6,0-8.33-3.73-8.33-8.33s3.73-8.33,8.33-8.33h136.01c4.6,0,8.33,3.73,8.33,8.33s-3.73,8.33-8.33,8.33Z"/>
    <path d="m620.83,88.82h-136.01c-4.6,0-8.33-3.73-8.33-8.33s3.73-8.33,8.33-8.33h136.01c4.6,0,8.33,3.73,8.33,8.33s-3.73,8.33-8.33,8.33Z"/>
    <path d="m620.83,197.08h-136.01c-4.6,0-8.33-3.73-8.33-8.33s3.73-8.33,8.33-8.33h136.01c4.6,0,8.33,3.73,8.33,8.33s-3.73,8.33-8.33,8.33Z"/>
    <path d="m373.8,199.85c-2.89,0-5.7-1.51-7.24-4.2l-66.62-116.58c-2.28-3.99-.89-9.08,3.1-11.36,4-2.29,9.08-.89,11.36,3.1l66.62,116.58c2.28,3.99.89,9.08-3.1,11.36-1.3.75-2.72,1.1-4.12,1.1Z"/>
    <path d="m373.79,199.85c-1.5,0-3.01-.4-4.38-1.25-3.91-2.42-5.12-7.55-2.7-11.46l72.17-116.58c2.42-3.91,7.55-5.12,11.46-2.7,3.91,2.42,5.12,7.55,2.7,11.46l-72.17,116.58c-1.57,2.55-4.3,3.94-7.09,3.94Z"/>
    <path d="m679.12,199.85c-4.6,0-8.33-3.73-8.33-8.33v-116.58c0-4.6,3.73-8.33,8.33-8.33s8.33,3.73,8.33,8.33v116.58c0,4.6-3.73,8.33-8.33,8.33Z"/>
    <path d="m779.05,199.85c-4.6,0-8.33-3.73-8.33-8.33v-116.58c0-4.6,3.73-8.33,8.33-8.33s8.33,3.73,8.33,8.33v116.58c0,4.6-3.73,8.33-8.33,8.33Z"/>
    <path d="m873.42,199.85c-4.6,0-8.33-3.73-8.33-8.33v-116.58c0-4.6,3.73-8.33,8.33-8.33s8.33,3.73,8.33,8.33v116.58c0,4.6-3.73,8.33-8.33,8.33Z"/>
    <path d="m934.49,83.27h-116.58c-4.6,0-8.33-3.73-8.33-8.33s3.73-8.33,8.33-8.33h116.58c4.6,0,8.33,3.73,8.33,8.33s-3.73,8.33-8.33,8.33Z"/>
    <path d="m779.05,199.85c-2.34,0-4.68-.99-6.32-2.91l-99.93-116.58c-3-3.49-2.59-8.75.9-11.74,3.49-2.99,8.75-2.59,11.74.9l99.93,116.58c3,3.49,2.59,8.75-.9,11.74-1.57,1.35-3.5,2.01-5.42,2.01Z"/>
    <path class="cls-1" d="m912.28,266.47H140.63c-41.32,0-74.94-33.62-74.94-74.94v-116.58C65.69,33.62,99.31,0,140.63,0h771.65c41.32,0,74.94,33.62,74.94,74.94v116.58c0,41.32-33.62,74.94-74.94,74.94ZM140.63,16.65c-32.14,0-58.29,26.15-58.29,58.29v116.58c0,32.14,26.15,58.29,58.29,58.29h771.65c32.14,0,58.29-26.15,58.29-58.29v-116.58c0-32.14-26.15-58.29-58.29-58.29H140.63Z"/>
  </g>
  <g>
    <g>
      <path d="m937.26,568.22c-1,0-1.81-.81-1.81-1.81v-136.42c0-1,.81-1.81,1.81-1.81s1.81.81,1.81,1.81v136.42c0,1-.81,1.81-1.81,1.81Z"/>
      <path d="m1054.19,568.22c-1,0-1.81-.81-1.81-1.81v-136.42c0-1,.81-1.81,1.81-1.81s1.81.81,1.81,1.81v136.42c0,1-.81,1.81-1.81,1.81Z"/>
      <path d="m1054.19,568.22c-.51,0-1.02-.21-1.37-.63l-116.93-136.42c-.65-.76-.56-1.9.2-2.55.76-.65,1.9-.56,2.55.2l116.93,136.42c.65.76.56,1.9-.2,2.55-.34.29-.76.44-1.18.44Z"/>
    </g>
    <g>
      <path d="m709.89,441.54h-136.42c-1,0-1.81-.81-1.81-1.81s.81-1.81,1.81-1.81h136.42c1,0,1.81.81,1.81,1.81s-.81,1.81-1.81,1.81Z"/>
      <path d="m709.89,558.47h-136.42c-1,0-1.81-.81-1.81-1.81s.81-1.81,1.81-1.81h136.42c1,0,1.81.81,1.81,1.81s-.81,1.81-1.81,1.81Z"/>
      <path d="m573.47,558.47c-.51,0-1.02-.21-1.37-.63-.65-.76-.56-1.9.2-2.55l136.42-116.93c.76-.65,1.9-.56,2.55.2.65.76.56,1.9-.2,2.55l-136.42,116.93c-.34.29-.76.44-1.18.44Z"/>
    </g>
    <path d="m521.5,568.22c-1,0-1.81-.81-1.81-1.81v-136.42c0-1,.81-1.81,1.81-1.81s1.81.81,1.81,1.81v136.42c0,1-.81,1.81-1.81,1.81Z"/>
    <g>
      <path d="m1.81,568.22c-1,0-1.81-.81-1.81-1.81v-136.42c0-1,.81-1.81,1.81-1.81s1.81.81,1.81,1.81v136.42c0,1-.81,1.81-1.81,1.81Z"/>
      <path d="m118.74,568.22c-1,0-1.81-.81-1.81-1.81v-136.42c0-1,.81-1.81,1.81-1.81s1.81.81,1.81,1.81v136.42c0,1-.81,1.81-1.81,1.81Z"/>
      <path d="m2.41,503.41c-1,0-1.81-.81-1.81-1.81,0-1,.81-1.81,1.81-1.81l116.33-.15h0c1,0,1.81.81,1.81,1.81s-.81,1.81-1.81,1.81l-116.33.15h0Z"/>
    </g>
    <path d="m306.46,568.22h-122.1c-4.95,0-8.97-4.02-8.97-8.97v-122.1c0-4.95,4.02-8.97,8.97-8.97h122.1c4.95,0,8.97,4.02,8.97,8.97v122.1c0,4.95-4.02,8.97-8.97,8.97Zm-122.1-136.42c-2.95,0-5.35,2.4-5.35,5.35v122.1c0,2.95,2.4,5.35,5.35,5.35h122.1c2.95,0,5.35-2.4,5.35-5.35v-122.1c0-2.95-2.4-5.35-5.35-5.35h-122.1Z"/>
    <path d="m884.62,568.22h-122.1c-4.95,0-8.97-4.02-8.97-8.97v-122.1c0-4.95,4.02-8.97,8.97-8.97h122.1c4.95,0,8.97,4.02,8.97,8.97v122.1c0,4.95-4.02,8.97-8.97,8.97Zm-122.1-136.42c-2.95,0-5.35,2.4-5.35,5.35v122.1c0,2.95,2.4,5.35,5.35,5.35h122.1c2.95,0,5.35-2.4,5.35-5.35v-122.1c0-2.95-2.4-5.35-5.35-5.35h-122.1Z"/>
    <g>
      <path d="m367.27,572.9c-1,0-1.81-.81-1.81-1.81v-136.42c0-1,.81-1.81,1.81-1.81s1.81.81,1.81,1.81v136.42c0,1-.81,1.81-1.81,1.81Z"/>
      <path d="m447.64,572.9c-.57,0-1.14-.27-1.49-.78l-47.42-68.29c-.57-.82-.37-1.95.45-2.52.82-.57,1.95-.36,2.52.45l47.42,68.29c.57.82.37,1.95-.45,2.52-.31.22-.67.32-1.03.32Z"/>
      <path d="m441.24,504.31h-71.66c-2.52,0-4.57-2.05-4.57-4.57v-71.66c0-2.52,2.05-4.57,4.57-4.57h71.66c2.52,0,4.57,2.05,4.57,4.57v71.66c0,2.52-2.05,4.57-4.57,4.57Zm-71.66-77.19c-.52,0-.96.44-.96.96v71.66c0,.52.44.96.96.96h71.66c.52,0,.96-.44.96-.96v-71.66c0-.52-.44-.96-.96-.96h-71.66Z"/>
    </g>
  </g>
</svg>